HIERARCHY
ROOT WRIST
{
	OFFSET 0.000000 0.000000 0.000000
	CHANNELS 6 Xposition Yposition Zposition Yrotation Xrotation Zrotation
	JOINT THUMB_CMC_FE
	{
		OFFSET 0.225143 0.117753 -0.062308
		CHANNELS 3 Yrotation Xrotation Zrotation
		JOINT THUMB_CMC_AA
		{
			OFFSET 0.212856 -0.150507 0.098851
			CHANNELS 3 Yrotation Xrotation Zrotation
			JOINT THUMB_MCP_FE
			{
				OFFSET -0.322503 -0.167445 -0.031436
				CHANNELS 3 Yrotation Xrotation Zrotation
				JOINT THUMB_IP_FE
				{
					OFFSET 0.295233 -0.236404 0.025845
					CHANNELS 3 Yrotation Xrotation Zrotation
					End Site
					{
						OFFSET 0.000000 0.000000 0.000000
					}
				}
			}
		}
	}
	JOINT INDEX_MCP
	{
		OFFSET 1.076913 0.264198 -0.014768
		CHANNELS 3 Yrotation Xrotation Zrotation
		JOINT INDEX_PIP_FE
		{
			OFFSET 0.425053 0.013289 0.013619
			CHANNELS 3 Yrotation Xrotation Zrotation
			JOINT INDEX_DIP_FE
			{
				OFFSET 0.271505 -0.024898 0.000550
				CHANNELS 3 Yrotation Xrotation Zrotation
				End Site
				{
					OFFSET 0.000000 0.000000 0.000000
				}
			}
		}
	}
	JOINT MIDDLE_MCP
	{
		OFFSET 1.072991 0.019362 0.038780
		CHANNELS 3 Yrotation Xrotation Zrotation
		JOINT MIDDLE_PIP_FE
		{
			OFFSET 0.480704 0.002618 0.028696
			CHANNELS 3 Yrotation Xrotation Zrotation
			JOINT MIDDLE_DIP_FE
			{
				OFFSET 0.307486 -0.031129 -0.000643
				CHANNELS 3 Yrotation Xrotation Zrotation
				End Site
				{
					OFFSET 0.000000 0.000000 0.000000
				}
			}
		}
	}
	JOINT RING_MCP
	{
		OFFSET 0.994992 -0.195930 -0.005938
		CHANNELS 3 Yrotation Xrotation Zrotation
		JOINT RING_PIP_FE
		{
			OFFSET 0.436995 0.003792 0.019994
			CHANNELS 3 Yrotation Xrotation Zrotation
			JOINT RING_DIP_FE
			{
				OFFSET 0.295558 -0.038341 -0.006642
				CHANNELS 3 Yrotation Xrotation Zrotation
				End Site
				{
					OFFSET 0.000000 0.000000 0.000000
				}
			}
		}
	}
	JOINT PINKY_MCP
	{
		OFFSET 0.873858 -0.393246 -0.086282
		CHANNELS 3 Yrotation Xrotation Zrotation
		JOINT PINKY_PIP_FE
		{
			OFFSET 0.343972 -0.016492 0.013445
			CHANNELS 3 Yrotation Xrotation Zrotation
			JOINT PINKY_DIP_FE
			{
				OFFSET 0.224713 -0.036309 -0.010265
				CHANNELS 3 Yrotation Xrotation Zrotation
				End Site
				{
					OFFSET 0.000000 0.000000 0.000000
				}
			}
		}
	}
}
MOTION
Frames: 14
Frame Time: 0.008333334
2.610900 5.535885 3.560232 -140.882900 -66.142210 -102.179600 61.461170 4.834470 51.613620 119.352900 -30.976930 26.359760 -112.864000 -65.843230 -50.400240 4.562081 -8.459839 27.854950 -115.098500 1.263812 172.874100 -41.978420 -86.125670 50.054510 -2.052612 1.704984 -23.597780 -120.076300 -5.262970 173.231500 -39.241420 -88.411190 46.834770 -6.002502 4.395446 3.020666 -129.354800 -14.263890 174.381100 -31.479800 -85.617800 40.574520 0.199306 0.562904 -11.059300 -141.108700 -21.543700 -178.453100 -48.977750 -83.530610 44.560280 5.539800 0.809186 1.634013 
2.614661 5.534339 3.562406 -140.478900 -66.219180 -102.476300 61.461180 4.834492 51.710710 119.352900 -30.976930 26.441630 -112.864000 -65.843260 -50.727510 4.562085 -8.459839 28.444400 -114.900800 1.252671 172.670700 -41.978580 -86.125670 50.054660 -2.052612 1.704997 -22.955720 -120.079400 -5.262878 172.972700 -39.241390 -88.411190 46.834770 -6.002502 4.395425 3.127904 -129.418400 -14.258940 174.146400 -31.479770 -85.617800 40.574490 0.199313 0.562918 -10.577030 -140.984700 -21.555940 -178.652500 -48.977870 -83.530670 44.956080 5.539811 0.809163 1.435165 
2.617774 5.533648 3.564564 -140.293600 -66.270600 -102.582300 61.461190 4.834496 51.632000 119.352900 -30.976930 26.394130 -112.864000 -65.843260 -50.630100 4.562086 -8.459808 28.929210 -114.818500 1.248039 172.739800 -41.978330 -86.125610 50.054440 -2.052612 1.705007 -22.254610 -120.176900 -5.259186 172.865200 -39.242310 -88.411190 46.835670 -6.002502 4.395449 2.324602 -129.490200 -14.253330 173.976400 -31.479980 -85.617800 40.574670 0.199317 0.562924 -10.188290 -141.046800 -21.549840 -178.686900 -48.977910 -83.530670 44.967890 5.539804 0.809176 1.323812 
2.620733 5.532904 3.566907 -140.008800 -66.312560 -102.788900 61.461190 4.834473 51.251380 119.352900 -30.976930 26.217600 -112.864000 -65.843260 -49.723210 4.562078 -8.459869 28.838400 -114.864700 1.250647 172.709400 -41.978390 -86.125670 50.054470 -2.052643 1.704988 -21.530120 -120.275000 -5.255493 172.722900 -39.241820 -88.411190 46.835200 -6.002502 4.395423 2.210789 -129.530700 -14.250150 173.794700 -31.479580 -85.617800 40.574310 0.199308 0.562931 -10.437130 -141.075500 -21.547000 -178.753600 -48.977690 -83.530610 44.929380 5.539805 0.809181 1.379826 
2.623411 5.530993 3.568471 -139.796600 -66.465580 -102.984000 61.461190 4.834489 51.316750 119.352900 -30.976930 27.102240 -112.864000 -65.843230 -49.039280 4.562075 -8.459839 24.409100 -114.723400 1.242683 172.394000 -41.978300 -86.125670 50.054390 -2.052643 1.704991 -20.855530 -120.164900 -5.259644 172.397700 -39.241120 -88.411190 46.834560 -6.002502 4.395436 2.167871 -129.345100 -14.264650 173.435700 -31.479610 -85.617680 40.574340 0.199305 0.562919 -10.116180 -140.998300 -21.554600 -178.994800 -48.977540 -83.530610 44.835720 5.539804 0.809166 1.341997 
2.626486 5.530292 3.569954 -139.751300 -66.543640 -102.959700 61.461190 4.834478 51.223050 119.352900 -30.976930 26.946410 -112.864000 -65.843230 -48.534060 4.562075 -8.459839 23.914660 -114.815400 1.247878 172.263700 -41.978330 -86.125670 50.054420 -2.052643 1.704996 -20.286130 -120.173800 -5.259308 172.208100 -39.241210 -88.411190 46.834570 -6.002502 4.395445 1.965620 -129.340100 -14.265010 173.282900 -31.479550 -85.617800 40.574260 0.199312 0.562905 -10.471950 -141.088200 -21.545750 -179.089400 -48.977660 -83.530640 44.933060 5.539802 0.809176 1.467437 
2.630253 5.530392 3.571058 -139.729600 -66.557310 -102.807400 61.461190 4.834482 50.987670 119.352900 -30.976930 26.169600 -112.864000 -65.843260 -48.361210 4.562077 -8.459839 26.670920 -115.044700 1.260787 172.399000 -41.978520 -86.125610 50.054620 -2.052612 1.704995 -19.891850 -120.297900 -5.254608 172.218600 -39.241240 -88.411190 46.834610 -6.002502 4.395455 1.985984 -129.538200 -14.249570 173.433700 -31.479800 -85.617800 40.574510 0.199311 0.562931 -10.507630 -141.371000 -21.517520 -178.981600 -48.977840 -83.530640 44.766920 5.539809 0.809167 1.732459 
2.634090 5.530170 3.571980 -139.395100 -66.559810 -102.963000 61.461170 4.834470 50.891910 119.352900 -30.976930 25.418500 -112.864000 -65.843230 -48.261020 4.562080 -8.459869 29.121150 -115.254100 1.272574 172.309100 -41.978580 -86.125610 50.054670 -2.052643 1.704985 -19.309170 -120.408900 -5.250397 172.111800 -39.241120 -88.411190 46.834530 -6.002533 4.395463 1.766587 -129.554300 -14.248290 173.344900 -31.480010 -85.617800 40.574720 0.199305 0.562936 -10.675020 -141.455700 -21.508940 -179.076100 -48.977870 -83.530640 44.744570 5.539806 0.809173 2.002198 
2.635796 5.528343 3.573471 -139.329800 -66.689090 -103.096200 61.461190 4.834476 51.031340 119.352900 -30.976930 26.609130 -112.864000 -65.843260 -47.777830 4.562084 -8.459839 24.232940 -115.130800 1.265624 171.884300 -41.978210 -86.125670 50.054290 -2.052612 1.704977 -18.670780 -120.193500 -5.258575 171.772100 -39.241910 -88.411320 46.835290 -6.002502 4.395436 1.824677 -129.360200 -14.263490 173.086600 -31.479740 -85.617800 40.574440 0.199294 0.562939 -10.804690 -141.437400 -21.510800 -179.329200 -48.977810 -83.530550 44.919350 5.539812 0.809167 2.256434 
2.636805 5.528656 3.575095 -139.236300 -66.664430 -103.214200 61.461190 4.834475 50.862390 119.352900 -30.976930 26.506560 -112.864000 -65.843260 -47.039000 4.562088 -8.459869 23.045950 -115.337000 1.277212 171.702100 -41.978390 -86.125610 50.054500 -2.052612 1.704980 -18.468350 -120.337400 -5.253113 171.795900 -39.240910 -88.411190 46.834330 -6.002533 4.395435 1.330025 -129.419800 -14.258820 173.071500 -31.480010 -85.617800 40.574730 0.199310 0.562931 -11.223080 -141.811500 -21.472530 -179.181400 -48.977600 -83.530580 44.919640 5.539820 0.809153 2.627441 
2.639813 5.528955 3.576847 -139.029900 -66.624050 -103.340200 61.461180 4.834476 50.846880 119.352900 -30.976930 25.680520 -112.864000 -65.843230 -47.119870 4.562088 -8.459839 25.629770 -115.716800 1.298517 171.620600 -41.978450 -86.125610 50.054530 -2.052643 1.705014 -18.520320 -120.672700 -5.240295 171.911600 -39.241150 -88.411190 46.834590 -6.002502 4.395425 0.576977 -129.520400 -14.250950 173.121400 -31.479980 -85.617800 40.574700 0.199304 0.562938 -11.668270 -142.230200 -21.428740 -178.914700 -48.977720 -83.530580 45.034670 5.539803 0.809197 2.811050 
2.639526 5.530609 3.579055 -139.678000 -66.566040 -102.886200 61.461200 4.834490 50.674450 119.352900 -30.976930 25.474140 -112.864000 -65.843230 -46.889190 4.562073 -8.459839 25.204460 -116.039100 1.316532 171.532300 -41.978450 -86.125670 50.054540 -2.052643 1.704990 -18.194430 -120.999300 -5.227631 172.089900 -39.242030 -88.411190 46.835400 -6.002533 4.395447 0.071406 -129.862400 -14.223910 173.334000 -31.479980 -85.617800 40.574710 0.199308 0.562919 -12.264370 -143.130100 -21.330930 -178.396900 -48.977840 -83.530610 44.640570 5.539816 0.809168 3.162801 
2.640025 5.533009 3.581037 -140.430700 -66.493800 -102.317400 61.461190 4.834480 50.733760 119.352900 -30.976930 25.301520 -112.864000 -65.843200 -47.006960 4.562077 -8.459839 24.492430 -116.308600 1.331586 171.450800 -41.978420 -86.125670 50.054500 -2.052612 1.705004 -17.352080 -121.456000 -5.209625 172.334500 -39.242340 -88.411190 46.835700 -6.002502 4.395444 -0.444702 -130.280700 -14.190120 173.584000 -31.479890 -85.617830 40.484040 0.199307 0.562932 -12.961360 -144.016100 -21.229860 -177.808200 -48.977750 -83.530580 44.717210 5.539800 0.809167 3.392793 
2.640193 5.536218 3.583788 -141.322400 -66.407710 -101.618400 61.461190 4.834470 50.823810 119.352900 -30.976930 25.062510 -112.864000 -65.843260 -47.207980 4.562092 -8.459839 23.156470 -116.750300 1.356178 171.641600 -41.978270 -86.125670 50.054340 -2.052643 1.705013 -16.255890 -122.140500 -5.182037 173.002800 -39.241360 -88.411190 46.834740 -6.002533 4.395455 -1.402740 -130.872700 -14.141050 174.210300 -31.479980 -85.617800 40.272000 0.199301 0.562944 -13.324040 -144.924100 -21.121280 -176.953300 -48.977840 -83.530610 45.184230 5.539803 0.809168 3.392791 
